<svg width="24" height="28" viewBox="0 0 24 28" fill="none" xmlns="http://www.w3.org/2000/svg">
<path fill-rule="evenodd" clip-rule="evenodd" d="M23.041 23.8111L21.1822 6.55027C21.0937 6.10768 20.7396 5.75362 20.297 5.75362H17.1989C17.1989 2.65551 15.34 0 11.9764 0C8.70125 0 6.84239 2.65551 6.84239 5.75362H3.74429C3.30171 5.75362 2.94764 6.10768 2.85912 6.55027L1.00026 23.8111C0.823226 25.67 2.32802 27.3518 4.18688 27.3518H19.8544C21.7133 27.3518 23.2181 25.67 23.041 23.8111ZM11.9764 1.68183C14.4549 1.68183 15.5171 3.54069 15.5171 5.75362H8.52422C8.52422 3.54069 9.58643 1.68183 11.9764 1.68183ZM19.8544 25.67H4.18688C3.30171 25.67 2.59357 24.8733 2.68209 23.9882L4.45243 7.43544H6.84239V9.55985C6.84239 10.7106 8.52422 10.7106 8.52422 9.55985V7.43544H15.5171V9.55985C15.5171 10.7106 17.1989 10.7106 17.1989 9.55985V7.43544H19.5889L21.3592 23.9882C21.4477 24.8733 20.7396 25.67 19.8544 25.67Z" fill="white"/>
</svg>
