<svg width="15" height="15" viewBox="0 0 15 15" fill="none" xmlns="http://www.w3.org/2000/svg">
<path d="M4.35397 0C1.95613 0 0 1.95613 0 4.35397V10.646C0 13.0439 1.95613 15 4.35397 15H10.646C13.0439 15 15 13.0439 15 10.646V4.35397C15 1.95613 13.0439 0 10.646 0H4.35397ZM4.35397 1.15385H10.646C12.4196 1.15385 13.8462 2.57812 13.8462 4.35397V10.646C13.8462 12.4196 12.4219 13.8462 10.646 13.8462H4.35397C2.58038 13.8462 1.15385 12.4219 1.15385 10.646V4.35397C1.15385 2.58038 2.57812 1.15385 4.35397 1.15385ZM11.8269 2.30769C11.3492 2.30769 10.9615 2.69531 10.9615 3.17308C10.9615 3.65084 11.3492 4.03846 11.8269 4.03846C12.3047 4.03846 12.6923 3.65084 12.6923 3.17308C12.6923 2.69531 12.3047 2.30769 11.8269 2.30769ZM7.5 3.46154C5.27569 3.46154 3.46154 5.27569 3.46154 7.5C3.46154 9.72431 5.27569 11.5385 7.5 11.5385C9.72431 11.5385 11.5385 9.72431 11.5385 7.5C11.5385 5.27569 9.72431 3.46154 7.5 3.46154ZM7.5 4.61538C9.10006 4.61538 10.3846 5.89994 10.3846 7.5C10.3846 9.10006 9.10006 10.3846 7.5 10.3846C5.89994 10.3846 4.61538 9.10006 4.61538 7.5C4.61538 5.89994 5.89994 4.61538 7.5 4.61538Z" fill="white"/>
</svg>
