<svg width="15" height="12" viewBox="0 0 15 12" fill="none" xmlns="http://www.w3.org/2000/svg">
<path d="M14.1538 1.35687C13.624 1.59185 13.0918 1.76923 12.5021 1.82913C13.0918 1.47436 13.5641 0.884615 13.7991 0.234976C13.2093 0.589744 12.6196 0.82472 11.9723 0.944512C11.3825 0.354768 10.6154 0 9.79066 0C8.19651 0 6.89954 1.29698 6.89954 2.88882C6.89954 3.1261 6.89954 3.36108 6.95943 3.53846C4.54057 3.42097 2.41887 2.29908 1.0021 0.529848C0.707232 0.944512 0.589744 1.47436 0.589744 2.00421C0.589744 3.00861 1.11959 3.89323 1.88672 4.42308C1.41446 4.36318 0.944511 4.24569 0.589744 4.06831C0.589744 4.06831 0.589744 4.06831 0.589744 4.12821C0.589744 5.54267 1.59185 6.72216 2.88882 6.95944C2.65385 7.01703 2.41887 7.07692 2.124 7.07692C1.94661 7.07692 1.76923 7.07692 1.59185 7.01703C1.94661 8.19652 3.00861 9.02354 4.30559 9.02354C3.30349 9.79067 2.0641 10.2606 0.707232 10.2606C0.472255 10.2606 0.234976 10.2606 0 10.203C1.29698 11.0277 2.83123 11.5 4.42308 11.5C9.79066 11.5 12.6795 7.07692 12.6795 3.24359C12.6795 3.1261 12.6795 3.00861 12.6795 2.88882C13.2692 2.47646 13.7415 1.94661 14.1538 1.35687Z" fill="white"/>
</svg>
